<?xml version="1.0" encoding="UTF-8" standalone="no"?>
<!DOCTYPE svg PUBLIC "-//W3C//DTD SVG 1.1//EN"
 "http://www.w3.org/Graphics/SVG/1.1/DTD/svg11.dtd">
<!-- Generated by graphviz version 2.38.0 (20140413.2041)
 -->
<!-- Title: %3 Pages: 1 -->
<svg width="585pt" height="637pt"
 viewBox="0.00 0.00 585.00 637.00" xmlns="http://www.w3.org/2000/svg" xmlns:xlink="http://www.w3.org/1999/xlink">
<g id="graph0" class="graph" transform="scale(1 1) rotate(0) translate(4 633)">
<title>%3</title>
<polygon fill="white" stroke="none" points="-4,4 -4,-633 581,-633 581,4 -4,4"/>
<g id="clust1" class="cluster"><title>cluster_logic</title>
<polygon fill="none" stroke="black" points="8,-8 8,-585 443,-585 443,-8 8,-8"/>
<text text-anchor="middle" x="225.5" y="-569.8" font-family="Times,serif" font-size="14.00">Logic</text>
</g>
<g id="clust2" class="cluster"><title>cluster_data</title>
<polygon fill="none" stroke="black" points="451,-475 451,-621 569,-621 569,-475 451,-475"/>
<text text-anchor="middle" x="510" y="-605.8" font-family="Times,serif" font-size="14.00">Data</text>
</g>
<!-- start -->
<g id="node1" class="node"><title>start</title>
<path fill="none" stroke="black" d="M145,-555C145,-555 115,-555 115,-555 109,-555 103,-549 103,-543 103,-543 103,-531 103,-531 103,-525 109,-519 115,-519 115,-519 145,-519 145,-519 151,-519 157,-525 157,-531 157,-531 157,-543 157,-543 157,-549 151,-555 145,-555"/>
<text text-anchor="middle" x="130" y="-532.8" font-family="Times,serif" font-size="14.00">start</text>
</g>
<!-- hook -->
<g id="node7" class="node"><title>hook</title>
<polygon fill="none" stroke="black" points="130,-446 38.6911,-396 130,-346 221.309,-396 130,-446"/>
<text text-anchor="middle" x="130" y="-405.8" font-family="Times,serif" font-size="14.00">Passes</text>
<text text-anchor="middle" x="130" y="-391.8" font-family="Times,serif" font-size="14.00">user&#45;supplied</text>
<text text-anchor="middle" x="130" y="-377.8" font-family="Times,serif" font-size="14.00">hook?</text>
</g>
<!-- start&#45;&gt;hook -->
<g id="edge1" class="edge"><title>start&#45;&gt;hook</title>
<path fill="none" stroke="black" d="M130,-518.956C130,-503.302 130,-479.161 130,-456.475"/>
<polygon fill="black" stroke="black" points="133.5,-456.19 130,-446.19 126.5,-456.19 133.5,-456.19"/>
</g>
<!-- good -->
<g id="node2" class="node"><title>good</title>
<path fill="none" stroke="black" d="M277,-52C277,-52 247,-52 247,-52 241,-52 235,-46 235,-40 235,-40 235,-28 235,-28 235,-22 241,-16 247,-16 247,-16 277,-16 277,-16 283,-16 289,-22 289,-28 289,-28 289,-40 289,-40 289,-46 283,-52 277,-52"/>
<text text-anchor="middle" x="262" y="-29.8" font-family="Times,serif" font-size="14.00">good</text>
</g>
<!-- bad -->
<g id="node3" class="node"><title>bad</title>
<path fill="none" stroke="black" d="M147,-52C147,-52 117,-52 117,-52 111,-52 105,-46 105,-40 105,-40 105,-28 105,-28 105,-22 111,-16 117,-16 117,-16 147,-16 147,-16 153,-16 159,-22 159,-28 159,-28 159,-40 159,-40 159,-46 153,-52 147,-52"/>
<text text-anchor="middle" x="132" y="-29.8" font-family="Times,serif" font-size="14.00">bad</text>
</g>
<!-- spdx_valid -->
<g id="node4" class="node"><title>spdx_valid</title>
<polygon fill="none" stroke="black" points="153,-296 52.7479,-260 153,-224 253.252,-260 153,-296"/>
<text text-anchor="middle" x="153" y="-262.8" font-family="Times,serif" font-size="14.00">Is &#39;valid&#39;</text>
<text text-anchor="middle" x="153" y="-248.8" font-family="Times,serif" font-size="14.00">SPDX license?</text>
</g>
<!-- inclusion_list -->
<g id="node5" class="node"><title>inclusion_list</title>
<polygon fill="none" stroke="black" points="341,-174 246.676,-138 341,-102 435.324,-138 341,-174"/>
<text text-anchor="middle" x="341" y="-140.8" font-family="Times,serif" font-size="14.00">Is in the</text>
<text text-anchor="middle" x="341" y="-126.8" font-family="Times,serif" font-size="14.00">inclusion list?</text>
</g>
<!-- spdx_valid&#45;&gt;inclusion_list -->
<g id="edge5" class="edge"><title>spdx_valid&#45;&gt;inclusion_list</title>
<path fill="none" stroke="black" d="M188.361,-236.429C219.411,-216.61 264.672,-187.72 297.847,-166.544"/>
<polygon fill="black" stroke="black" points="299.886,-169.395 306.432,-161.064 296.12,-163.495 299.886,-169.395"/>
<text text-anchor="middle" x="259" y="-194.8" font-family="Times,serif" font-size="14.00">no</text>
</g>
<!-- exclusion_list -->
<g id="node6" class="node"><title>exclusion_list</title>
<polygon fill="none" stroke="black" points="132,-174 35.5273,-138 132,-102 228.473,-138 132,-174"/>
<text text-anchor="middle" x="132" y="-140.8" font-family="Times,serif" font-size="14.00">Is in the</text>
<text text-anchor="middle" x="132" y="-126.8" font-family="Times,serif" font-size="14.00">exclusion list?</text>
</g>
<!-- spdx_valid&#45;&gt;exclusion_list -->
<g id="edge4" class="edge"><title>spdx_valid&#45;&gt;exclusion_list</title>
<path fill="none" stroke="black" d="M147.206,-225.892C144.842,-212.382 142.076,-196.58 139.557,-182.182"/>
<polygon fill="black" stroke="black" points="142.947,-181.247 137.775,-172 136.051,-182.454 142.947,-181.247"/>
<text text-anchor="middle" x="153.331" y="-194.8" font-family="Times,serif" font-size="14.00">yes</text>
</g>
<!-- inclusion_list&#45;&gt;good -->
<g id="edge8" class="edge"><title>inclusion_list&#45;&gt;good</title>
<path fill="none" stroke="black" d="M320.037,-109.934C308.081,-94.4964 293.194,-75.2754 281.491,-60.1656"/>
<polygon fill="black" stroke="black" points="284.246,-58.0072 275.356,-52.2443 278.712,-62.2935 284.246,-58.0072"/>
<text text-anchor="middle" x="308.331" y="-72.8" font-family="Times,serif" font-size="14.00">yes</text>
</g>
<!-- inclusion_list&#45;&gt;bad -->
<g id="edge9" class="edge"><title>inclusion_list&#45;&gt;bad</title>
<path fill="none" stroke="black" d="M308.855,-114.152C288.165,-100.142 260.312,-82.5479 234,-70 213.038,-60.0036 188.443,-51.4772 168.656,-45.3432"/>
<polygon fill="black" stroke="black" points="169.665,-41.9918 159.08,-42.4435 167.636,-48.6914 169.665,-41.9918"/>
<text text-anchor="middle" x="265" y="-72.8" font-family="Times,serif" font-size="14.00">no</text>
</g>
<!-- exclusion_list&#45;&gt;good -->
<g id="edge7" class="edge"><title>exclusion_list&#45;&gt;good</title>
<path fill="none" stroke="black" d="M162.479,-113.086C183.548,-96.555 211.432,-74.6763 232.324,-58.2841"/>
<polygon fill="black" stroke="black" points="234.535,-60.9981 240.242,-52.0716 230.214,-55.4909 234.535,-60.9981"/>
<text text-anchor="middle" x="223" y="-72.8" font-family="Times,serif" font-size="14.00">no</text>
</g>
<!-- exclusion_list&#45;&gt;bad -->
<g id="edge6" class="edge"><title>exclusion_list&#45;&gt;bad</title>
<path fill="none" stroke="black" d="M132,-101.897C132,-88.8827 132,-74.3334 132,-62.1355"/>
<polygon fill="black" stroke="black" points="135.5,-62.1192 132,-52.1192 128.5,-62.1193 135.5,-62.1192"/>
<text text-anchor="middle" x="141.331" y="-72.8" font-family="Times,serif" font-size="14.00">yes</text>
</g>
<!-- hook&#45;&gt;bad -->
<g id="edge2" class="edge"><title>hook&#45;&gt;bad</title>
<path fill="none" stroke="black" d="M95.18,-364.541C76.8952,-346.503 55.8762,-322.112 44,-296 8.16689,-217.213 -14.6032,-177.898 27,-102 41.4981,-75.5506 71.369,-58.0332 95.5565,-47.5665"/>
<polygon fill="black" stroke="black" points="96.9104,-50.7942 104.839,-43.7666 94.2585,-44.316 96.9104,-50.7942"/>
<text text-anchor="middle" x="15" y="-194.8" font-family="Times,serif" font-size="14.00">no</text>
</g>
<!-- hook&#45;&gt;spdx_valid -->
<g id="edge3" class="edge"><title>hook&#45;&gt;spdx_valid</title>
<path fill="none" stroke="black" d="M137.723,-350.007C140.243,-335.323 143.036,-319.053 145.537,-304.483"/>
<polygon fill="black" stroke="black" points="149.056,-304.668 147.298,-294.22 142.157,-303.484 149.056,-304.668"/>
<text text-anchor="middle" x="153.331" y="-316.8" font-family="Times,serif" font-size="14.00">yes</text>
</g>
<!-- list_item -->
<g id="node8" class="node"><title>list_item</title>
<polygon fill="none" stroke="black" points="468,-567 468,-587 553,-587 553,-567 468,-567"/>
<text text-anchor="start" x="486" y="-573.8" font-family="Times,serif" font-weight="bold" font-size="14.00">list_item</text>
<polygon fill="none" stroke="black" points="468,-547 468,-567 553,-567 553,-547 468,-547"/>
<text text-anchor="start" x="495.341" y="-552.8" font-family="Times,serif" font-size="14.00">name</text>
<polygon fill="none" stroke="black" points="468,-527 468,-547 553,-547 553,-527 468,-527"/>
<text text-anchor="start" x="481.731" y="-532.8" font-family="Times,serif" font-size="14.00">audit_trail</text>
<polygon fill="none" stroke="black" points="468,-507 468,-527 553,-527 553,-507 468,-507"/>
<text text-anchor="start" x="498.062" y="-512.8" font-family="Times,serif" font-size="14.00">desc</text>
<polygon fill="none" stroke="black" points="468,-487 468,-507 553,-507 553,-487 468,-487"/>
<text text-anchor="start" x="470.848" y="-492.8" font-family="Times,serif" font-size="14.00">version_range</text>
</g>
</g>
</svg>
